<svg width="1444" height="245" viewBox="0 0 1444 245" fill="none" xmlns="http://www.w3.org/2000/svg">
<g clip-path="url(#clip0_159_2346)">
<path d="M192.373 2C170.1 2 149.988 11.3095 135.627 26.2325C121.266 11.3095 101.154 2 78.8804 2C35.3794 2 0 37.3899 0 80.9038C0 99.5227 6.51818 116.642 17.3586 130.171C17.742 131.356 18.3346 132.507 19.2757 133.413L130.956 240.978C132.281 242.233 133.919 242.861 135.627 243C137.335 242.861 138.973 242.268 140.298 240.978L251.978 133.413C252.919 132.507 253.512 131.391 253.895 130.171C264.736 116.642 271.254 99.5227 271.254 80.9038C271.254 37.3899 235.874 2 192.373 2ZM242.323 120.303C237.513 126.37 203.527 158.936 203.527 158.936L135.627 224.346L67.7263 158.936C67.7263 158.936 33.7063 126.37 28.931 120.303C20.3562 109.46 15.2323 95.792 15.2323 80.9038C15.2323 45.7231 43.745 17.202 78.9153 17.202C97.6681 17.202 115.201 26.2325 126.843 39.1332C125.588 41.0509 86.026 88.2607 86.026 88.2607L82.5055 92.4796V97.9886V120.269V135.47V144.362V151.439V159.563V166.641H97.703H135.627H173.551H188.748V159.563V151.439V144.362V135.47V120.269V97.9886V92.4796L185.228 88.2607C185.228 88.2607 167.556 66.19 156.053 51.6853L145.526 64.2374L157.656 78.8466L173.516 97.9886V120.269V135.47V141.712V151.439H157.308H135.592H113.876H97.6681V141.712V135.47V120.269V97.9886L113.528 78.8466L132.908 55.4858H132.873L146.363 39.3773C158.005 26.4766 173.586 17.202 192.339 17.202C227.509 17.202 256.021 45.7231 256.021 80.9038C256.021 95.792 250.863 109.46 242.323 120.303Z" fill="#F1734C"/>
<path d="M133.082 114.446H109.136V90.4922H133.082V114.446ZM115.236 108.344H127.017V96.559H115.236V108.344Z" fill="#F1734C"/>
<path d="M162.431 114.446H138.484V90.4922H162.431V114.446ZM144.584 108.344H156.366V96.559H144.584V108.344Z" fill="#F1734C"/>
<path d="M133.082 142.339H109.136V118.386H133.082V142.339ZM115.236 136.238H127.017V124.453H115.236V136.238Z" fill="#F1734C"/>
<path d="M162.431 142.339H138.484V118.386H162.431V142.339ZM144.584 136.238H156.366V124.453H144.584V136.238Z" fill="#F1734C"/>
<path d="M354.894 90.684H331.819L326.59 104.979H322.094L341.335 54.1434H345.413L364.654 104.979H360.192L354.929 90.684H354.894ZM333.143 87.0578H353.534L343.356 59.3735L333.178 87.0578H333.143Z" fill="#284D6D"/>
<path d="M375.076 67.1837L375.215 73.634C376.645 71.298 378.422 69.5197 380.514 68.2994C382.605 67.0791 384.975 66.4515 387.52 66.4515C391.563 66.4515 394.596 67.6021 396.548 69.8684C398.535 72.1348 399.545 75.5866 399.545 80.1193V104.91H395.397V80.0844C395.397 76.7023 394.665 74.1919 393.236 72.5532C391.807 70.9144 389.576 70.0776 386.474 70.0776C383.895 70.0776 381.594 70.8796 379.607 72.5183C377.621 74.1222 376.157 76.3188 375.181 79.0733V104.945H371.033V67.1488H375.006L375.076 67.1837Z" fill="#284D6D"/>
<path d="M414.359 67.1837L414.499 73.634C415.928 71.298 417.706 69.5197 419.797 68.2994C421.888 67.0791 424.259 66.4515 426.803 66.4515C430.846 66.4515 433.879 67.6021 435.831 69.8684C437.818 72.1348 438.829 75.5866 438.829 80.1193V104.91H434.681V80.0844C434.681 76.7023 433.949 74.1919 432.52 72.5532C431.09 70.9144 428.86 70.0776 425.757 70.0776C423.178 70.0776 420.877 70.8796 418.891 72.5183C416.904 74.1222 415.44 76.3188 414.464 79.0733V104.945H410.316V67.1488H414.29L414.359 67.1837Z" fill="#284D6D"/>
<path d="M473.964 100.203C471.455 103.864 467.446 105.677 461.904 105.677C457.86 105.677 454.828 104.491 452.737 102.155C450.645 99.8191 449.565 96.3673 449.53 91.7648V67.1837H453.678V91.2418C453.678 98.4244 456.571 102.051 462.392 102.051C468.213 102.051 472.256 99.5401 473.86 94.5542V67.2185H478.042V105.014H473.999L473.929 100.237L473.964 100.203Z" fill="#284D6D"/>
<path d="M512.794 104.979C512.376 103.794 512.097 102.051 511.992 99.7145C510.528 101.632 508.646 103.097 506.38 104.143C504.115 105.189 501.71 105.712 499.165 105.712C495.54 105.712 492.612 104.7 490.346 102.678C488.116 100.656 486.965 98.0757 486.965 95.0074C486.965 91.3116 488.499 88.4176 491.566 86.2907C494.634 84.1638 498.886 83.083 504.359 83.083H511.923V78.7943C511.923 76.1096 511.086 73.9827 509.413 72.4137C507.74 70.8796 505.335 70.0776 502.128 70.0776C499.235 70.0776 496.795 70.8098 494.913 72.3091C493.03 73.8084 492.054 75.5866 492.054 77.6786H487.872C487.872 74.6452 489.266 72.0302 492.054 69.8335C494.843 67.6369 498.294 66.5212 502.372 66.5212C506.45 66.5212 509.901 67.5672 512.341 69.6941C514.781 71.7861 516.036 74.7498 516.105 78.5154V96.4021C516.105 100.063 516.489 102.783 517.256 104.596V105.014H512.794V104.979ZM499.653 101.981C502.442 101.981 504.951 101.318 507.147 99.9585C509.343 98.5987 510.947 96.8205 511.957 94.5542V86.2559H504.498C500.315 86.2907 497.074 87.0578 494.738 88.5571C492.403 90.0215 491.218 92.0786 491.218 94.6588C491.218 96.7857 492.02 98.529 493.588 99.9237C495.157 101.318 497.213 102.016 499.723 102.016L499.653 101.981Z" fill="#284D6D"/>
<path d="M527.016 56.2703C527.016 55.4684 527.26 54.8059 527.782 54.2829C528.305 53.725 529.002 53.481 529.874 53.481C530.745 53.481 531.477 53.7599 532 54.2829C532.523 54.8059 532.802 55.5033 532.802 56.2703C532.802 57.0374 532.523 57.6999 532 58.2577C531.477 58.8156 530.78 59.0597 529.874 59.0597C528.968 59.0597 528.305 58.7807 527.782 58.2577C527.26 57.7347 527.016 57.0723 527.016 56.2703ZM531.93 104.979H527.748V67.1837H531.93V104.979Z" fill="#284D6D"/>
<path d="M560.722 70.7401C559.851 70.5658 558.91 70.496 557.899 70.496C555.285 70.496 553.089 71.2282 551.276 72.6926C549.464 74.157 548.174 76.2491 547.407 79.0384V104.979H543.259V67.1837H547.337L547.407 73.1808C549.603 68.7178 553.159 66.4863 558.038 66.4863C559.189 66.4863 560.13 66.6258 560.792 66.9396L560.688 70.7401H560.722Z" fill="#284D6D"/>
<path d="M581.287 105.677C578.08 105.677 575.187 104.875 572.573 103.306C569.959 101.737 567.972 99.5053 566.508 96.6811C565.044 93.8568 564.347 90.684 564.347 87.1624V85.6631C564.347 82.037 565.044 78.7595 566.473 75.8655C567.867 72.9716 569.854 70.6704 572.364 68.9967C574.873 67.3231 577.592 66.4863 580.52 66.4863C585.121 66.4863 588.746 68.0553 591.43 71.1934C594.114 74.3314 595.474 78.62 595.474 84.0244V86.3605H568.529V87.1624C568.529 91.451 569.749 95.0074 572.224 97.8665C574.664 100.726 577.766 102.155 581.496 102.155C583.727 102.155 585.714 101.737 587.422 100.935C589.13 100.133 590.698 98.8079 592.092 97.0297L594.707 99.0171C591.639 103.48 587.178 105.677 581.322 105.677H581.287ZM580.52 70.0427C577.383 70.0427 574.734 71.1934 572.573 73.4946C570.412 75.7958 569.122 78.8989 568.634 82.7692H591.291V82.3159C591.186 78.6897 590.141 75.7261 588.189 73.4597C586.237 71.1934 583.692 70.0427 580.52 70.0427Z" fill="#284D6D"/>
<path d="M344.855 171.261H335.025V190.822H326.207V139.986H344.088C349.944 139.986 354.475 141.311 357.682 143.926C360.889 146.576 362.457 150.376 362.457 155.362C362.457 158.779 361.621 161.603 359.983 163.904C358.344 166.206 356.044 167.949 353.116 169.204L364.549 190.368V190.822H355.103L344.925 171.261H344.855ZM335.025 164.148H344.088C347.051 164.148 349.386 163.381 351.059 161.882C352.732 160.383 353.569 158.326 353.569 155.711C353.569 153.096 352.802 150.864 351.234 149.4C349.7 147.901 347.364 147.133 344.297 147.099H334.99V164.148H335.025Z" fill="#284D6D"/>
<path d="M386.613 191.519C381.245 191.519 376.888 189.811 373.542 186.428C370.196 183.046 368.522 178.514 368.522 172.9V171.854C368.522 168.088 369.254 164.706 370.718 161.743C372.182 158.779 374.204 156.478 376.853 154.804C379.467 153.165 382.43 152.329 385.637 152.329C390.796 152.329 394.769 153.967 397.558 157.245C400.347 160.522 401.776 165.16 401.776 171.192V174.609H377.097C377.341 177.747 378.387 180.187 380.234 182C382.047 183.813 384.347 184.72 387.136 184.72C391.04 184.72 394.177 183.151 396.617 180.013L401.183 184.371C399.684 186.638 397.663 188.381 395.118 189.636C392.608 190.891 389.75 191.519 386.613 191.519ZM385.602 159.128C383.267 159.128 381.385 159.93 379.955 161.568C378.526 163.207 377.62 165.473 377.202 168.367H393.375V167.74C393.201 164.916 392.434 162.754 391.11 161.289C389.785 159.825 387.938 159.093 385.602 159.093V159.128ZM387.519 137.162H397.175L387.519 147.761H380.722L387.519 137.162Z" fill="#284D6D"/>
<path d="M429.522 180.536C429.522 179.037 428.895 177.886 427.64 177.084C426.385 176.282 424.329 175.585 421.435 174.992C418.542 174.399 416.137 173.632 414.22 172.691C410.002 170.634 407.876 167.67 407.876 163.8C407.876 160.522 409.236 157.803 411.989 155.641C414.743 153.444 418.229 152.363 422.446 152.363C426.943 152.363 430.603 153.479 433.391 155.711C436.18 157.942 437.574 160.836 437.574 164.393H429.104C429.104 162.754 428.511 161.394 427.291 160.313C426.071 159.232 424.468 158.674 422.481 158.674C420.634 158.674 419.1 159.093 417.915 159.964C416.73 160.836 416.137 161.987 416.137 163.416C416.137 164.706 416.695 165.718 417.775 166.45C418.856 167.182 421.087 167.914 424.398 168.646C427.71 169.379 430.324 170.25 432.241 171.261C434.123 172.272 435.552 173.493 436.459 174.922C437.365 176.352 437.853 178.06 437.853 180.083C437.853 183.5 436.459 186.219 433.635 188.346C430.812 190.473 427.117 191.519 422.586 191.519C419.483 191.519 416.73 190.961 414.325 189.845C411.885 188.73 410.002 187.196 408.678 185.243C407.353 183.29 406.656 181.164 406.656 178.932H414.882C414.987 180.919 415.754 182.488 417.148 183.569C418.542 184.65 420.39 185.208 422.69 185.208C424.991 185.208 426.629 184.79 427.779 183.918C428.93 183.046 429.522 181.965 429.522 180.571V180.536Z" fill="#284D6D"/>
<path d="M445.277 143.193C445.277 141.903 445.695 140.823 446.532 139.951C447.368 139.079 448.553 138.661 450.087 138.661C451.621 138.661 452.806 139.079 453.642 139.951C454.479 140.823 454.897 141.903 454.897 143.193C454.897 144.484 454.479 145.53 453.642 146.401C452.806 147.238 451.621 147.691 450.087 147.691C448.553 147.691 447.368 147.273 446.532 146.401C445.695 145.564 445.277 144.484 445.277 143.193ZM454.27 190.787H445.8V152.991H454.27V190.787Z" fill="#284D6D"/>
<path d="M461.903 171.645C461.903 165.822 463.263 161.15 465.947 157.628C468.631 154.107 472.256 152.329 476.822 152.329C480.831 152.329 484.072 153.723 486.512 156.513V137.162H494.982V190.822H487.314L486.896 186.917C484.351 189.985 480.97 191.519 476.718 191.519C472.465 191.519 468.735 189.741 465.982 186.184C463.263 182.628 461.869 177.781 461.869 171.645H461.903ZM470.374 172.377C470.374 176.212 471.106 179.211 472.604 181.373C474.103 183.534 476.195 184.615 478.914 184.615C482.399 184.615 484.909 183.081 486.512 179.978V163.835C484.944 160.801 482.434 159.302 478.983 159.302C476.23 159.302 474.103 160.383 472.639 162.579C471.14 164.741 470.409 168.019 470.409 172.412L470.374 172.377Z" fill="#284D6D"/>
<path d="M520.497 191.519C515.129 191.519 510.772 189.811 507.426 186.428C504.08 183.046 502.407 178.514 502.407 172.9V171.854C502.407 168.088 503.139 164.706 504.603 161.743C506.067 158.779 508.088 156.478 510.737 154.804C513.352 153.165 516.315 152.329 519.521 152.329C524.68 152.329 528.654 153.967 531.442 157.245C534.231 160.522 535.66 165.16 535.66 171.192V174.609H510.981C511.225 177.747 512.271 180.187 514.119 182C515.931 183.813 518.232 184.72 521.02 184.72C524.924 184.72 528.061 183.151 530.501 180.013L535.067 184.371C533.568 186.638 531.547 188.381 529.002 189.636C526.493 190.891 523.634 191.519 520.497 191.519ZM519.486 159.128C517.151 159.128 515.269 159.93 513.84 161.568C512.411 163.207 511.504 165.473 511.086 168.367H527.259V167.74C527.085 164.916 526.318 162.754 524.994 161.289C523.669 159.825 521.822 159.093 519.486 159.093V159.128Z" fill="#284D6D"/>
<path d="M550.125 153.026L550.369 157.384C553.158 154.002 556.818 152.329 561.349 152.329C569.227 152.329 573.235 156.826 573.375 165.857V190.822H564.904V166.345C564.904 163.939 564.382 162.161 563.336 161.01C562.29 159.86 560.617 159.267 558.247 159.267C554.831 159.267 552.286 160.801 550.613 163.904V190.787H542.143V152.991H550.125V153.026Z" fill="#284D6D"/>
<path d="M597.531 184.72C599.657 184.72 601.4 184.092 602.794 182.872C604.188 181.652 604.92 180.118 605.025 178.304H613.007C612.902 180.641 612.17 182.837 610.811 184.894C609.452 186.917 607.569 188.555 605.234 189.741C602.899 190.926 600.354 191.519 597.635 191.519C592.337 191.519 588.154 189.811 585.052 186.394C581.95 182.977 580.416 178.235 580.416 172.203V171.331C580.416 165.578 581.95 160.976 585.017 157.524C588.084 154.072 592.267 152.329 597.6 152.329C602.097 152.329 605.757 153.654 608.58 156.269C611.404 158.884 612.902 162.335 613.042 166.589H605.06C604.955 164.427 604.223 162.649 602.829 161.255C601.435 159.86 599.692 159.163 597.531 159.163C594.777 159.163 592.651 160.174 591.187 162.161C589.688 164.148 588.956 167.182 588.921 171.226V172.586C588.921 176.701 589.653 179.734 591.152 181.756C592.616 183.779 594.777 184.79 597.565 184.79L597.531 184.72Z" fill="#284D6D"/>
<path d="M636.081 191.519C630.713 191.519 626.356 189.811 623.01 186.428C619.664 183.046 617.991 178.514 617.991 172.9V171.854C617.991 168.088 618.723 164.706 620.187 161.743C621.651 158.779 623.672 156.478 626.321 154.804C628.936 153.165 631.898 152.329 635.105 152.329C640.264 152.329 644.238 153.967 647.026 157.245C649.815 160.522 651.244 165.16 651.244 171.192V174.609H626.565C626.809 177.747 627.855 180.187 629.703 182C631.515 183.813 633.816 184.72 636.604 184.72C640.508 184.72 643.645 183.151 646.085 180.013L650.651 184.371C649.152 186.638 647.131 188.381 644.586 189.636C642.077 190.891 639.218 191.519 636.081 191.519ZM635.07 159.128C632.735 159.128 630.853 159.93 629.424 161.568C627.995 163.207 627.088 165.473 626.67 168.367H642.843V167.74C642.669 164.916 641.902 162.754 640.578 161.289C639.253 159.825 637.406 159.093 635.07 159.093V159.128Z" fill="#284D6D"/>
<path d="M678.99 180.536C678.99 179.037 678.363 177.886 677.108 177.084C675.853 176.282 673.797 175.585 670.904 174.992C668.011 174.399 665.606 173.632 663.688 172.691C659.471 170.634 657.345 167.67 657.345 163.8C657.345 160.522 658.704 157.803 661.458 155.641C664.211 153.444 667.697 152.363 671.915 152.363C676.411 152.363 680.071 153.479 682.86 155.711C685.648 157.942 687.042 160.836 687.042 164.393H678.572C678.572 162.754 677.98 161.394 676.76 160.313C675.54 159.232 673.936 158.674 671.949 158.674C670.102 158.674 668.568 159.093 667.383 159.964C666.198 160.836 665.606 161.987 665.606 163.416C665.606 164.706 666.163 165.718 667.244 166.45C668.324 167.182 670.555 167.914 673.867 168.646C677.178 169.379 679.792 170.25 681.709 171.261C683.592 172.272 685.021 173.493 685.927 174.922C686.833 176.352 687.321 178.06 687.321 180.083C687.321 183.5 685.927 186.219 683.104 188.346C680.28 190.473 676.585 191.519 672.054 191.519C668.952 191.519 666.198 190.961 663.793 189.845C661.353 188.73 659.471 187.196 658.146 185.243C656.822 183.29 656.125 181.164 656.125 178.932H664.351C664.455 180.919 665.222 182.488 666.616 183.569C668.011 184.65 669.858 185.208 672.159 185.208C674.459 185.208 676.097 184.79 677.248 183.918C678.398 183.046 678.99 181.965 678.99 180.571V180.536Z" fill="#284D6D"/>
<path d="M739.885 177.712C739.885 175.48 739.118 173.772 737.515 172.551C735.946 171.331 733.123 170.111 729.01 168.89C724.896 167.67 721.655 166.275 719.25 164.776C714.614 161.882 712.313 158.082 712.313 153.375C712.313 149.26 713.986 145.913 717.333 143.263C720.679 140.613 725.001 139.288 730.334 139.288C733.855 139.288 737.027 139.951 739.78 141.241C742.534 142.531 744.73 144.414 746.298 146.82C747.867 149.225 748.669 151.91 748.669 154.839H739.885C739.885 152.189 739.048 150.097 737.375 148.598C735.702 147.099 733.332 146.332 730.23 146.332C727.336 146.332 725.106 146.959 723.502 148.179C721.899 149.4 721.097 151.143 721.097 153.34C721.097 155.188 721.969 156.757 723.677 158.012C725.384 159.267 728.243 160.453 732.182 161.638C736.12 162.824 739.327 164.149 741.697 165.648C744.068 167.147 745.845 168.856 746.961 170.808C748.076 172.761 748.634 175.027 748.634 177.642C748.634 181.896 746.996 185.243 743.754 187.753C740.512 190.264 736.085 191.519 730.543 191.519C726.883 191.519 723.502 190.822 720.4 189.462C717.298 188.102 714.928 186.219 713.22 183.813C711.512 181.408 710.64 178.618 710.64 175.445H719.459C719.459 178.339 720.4 180.571 722.317 182.14C724.234 183.709 726.953 184.511 730.508 184.511C733.576 184.511 735.876 183.883 737.445 182.628C738.979 181.373 739.78 179.734 739.78 177.677L739.885 177.712Z" fill="#284D6D"/>
<path d="M772.302 191.519C766.934 191.519 762.577 189.811 759.23 186.428C755.884 183.046 754.211 178.514 754.211 172.9V171.854C754.211 168.088 754.943 164.706 756.407 161.743C757.871 158.779 759.893 156.478 762.542 154.804C765.156 153.165 768.119 152.329 771.326 152.329C776.484 152.329 780.458 153.967 783.246 157.245C786.035 160.522 787.464 165.16 787.464 171.192V174.609H762.786C763.03 177.747 764.075 180.187 765.923 182C767.735 183.813 770.036 184.72 772.824 184.72C776.728 184.72 779.865 183.151 782.305 180.013L786.872 184.371C785.373 186.638 783.351 188.381 780.807 189.636C778.297 190.891 775.439 191.519 772.302 191.519ZM771.291 159.128C768.955 159.128 767.073 159.93 765.644 161.568C764.215 163.207 763.309 165.473 762.89 168.367H779.064V167.74C778.889 164.916 778.123 162.754 776.798 161.289C775.473 159.825 773.626 159.093 771.291 159.093V159.128Z" fill="#284D6D"/>
<path d="M801.895 153.026L802.139 157.384C804.927 154.002 808.587 152.329 813.119 152.329C820.996 152.329 825.005 156.826 825.144 165.857V190.822H816.674V166.345C816.674 163.939 816.151 162.161 815.105 161.01C814.06 159.86 812.387 159.267 810.016 159.267C806.6 159.267 804.056 160.801 802.383 163.904V190.787H793.913V152.991H801.895V153.026Z" fill="#284D6D"/>
<path d="M833.823 143.193C833.823 141.903 834.241 140.823 835.078 139.951C835.914 139.079 837.099 138.661 838.633 138.661C840.167 138.661 841.352 139.079 842.188 139.951C843.025 140.823 843.443 141.903 843.443 143.193C843.443 144.484 843.025 145.53 842.188 146.401C841.352 147.238 840.167 147.691 838.633 147.691C837.099 147.691 835.914 147.273 835.078 146.401C834.241 145.564 833.823 144.484 833.823 143.193ZM842.816 190.787H834.346V152.991H842.816V190.787Z" fill="#284D6D"/>
<path d="M850.45 171.575C850.45 167.879 851.182 164.532 852.646 161.568C854.11 158.605 856.166 156.303 858.815 154.734C861.465 153.131 864.532 152.329 867.948 152.329C873.037 152.329 877.185 153.967 880.357 157.245C883.529 160.522 885.237 164.881 885.516 170.32V172.307C885.55 176.038 884.818 179.35 883.389 182.279C881.96 185.208 879.904 187.474 877.255 189.078C874.605 190.682 871.503 191.484 868.018 191.484C862.685 191.484 858.432 189.706 855.225 186.15C852.018 182.593 850.415 177.851 850.415 171.959V171.54L850.45 171.575ZM858.92 172.307C858.92 176.212 859.722 179.246 861.325 181.442C862.929 183.639 865.159 184.755 868.018 184.755C870.876 184.755 873.107 183.639 874.71 181.408C876.313 179.176 877.115 175.899 877.115 171.61C877.115 167.775 876.279 164.776 874.64 162.545C873.002 160.313 870.771 159.197 867.948 159.197C865.125 159.197 862.963 160.313 861.36 162.51C859.722 164.706 858.92 167.984 858.92 172.377V172.307Z" fill="#284D6D"/>
<path d="M912.529 160.766C911.413 160.592 910.263 160.487 909.078 160.487C905.174 160.487 902.56 161.987 901.235 164.95V190.787H892.765V152.991H900.852L901.061 157.21C903.118 153.933 905.941 152.294 909.566 152.294C910.786 152.294 911.762 152.468 912.564 152.782V160.732L912.529 160.766Z" fill="#284D6D"/>
<path d="M939.09 180.536C939.09 179.037 938.462 177.886 937.207 177.084C935.953 176.282 933.896 175.585 931.003 174.992C928.11 174.399 925.705 173.632 923.788 172.691C919.57 170.634 917.444 167.67 917.444 163.8C917.444 160.522 918.803 157.803 921.557 155.641C924.31 153.444 927.796 152.363 932.014 152.363C936.51 152.363 940.17 153.479 942.959 155.711C945.747 157.942 947.142 160.836 947.142 164.393H938.671C938.671 162.754 938.079 161.394 936.859 160.313C935.639 159.232 934.035 158.674 932.049 158.674C930.201 158.674 928.667 159.093 927.482 159.964C926.297 160.836 925.705 161.987 925.705 163.416C925.705 164.706 926.262 165.718 927.343 166.45C928.423 167.182 930.654 167.914 933.966 168.646C937.277 169.379 939.891 170.25 941.808 171.261C943.691 172.272 945.12 173.493 946.026 174.922C946.932 176.352 947.42 178.06 947.42 180.083C947.42 183.5 946.026 186.219 943.203 188.346C940.379 190.473 936.684 191.519 932.153 191.519C929.051 191.519 926.297 190.961 923.892 189.845C921.452 188.73 919.57 187.196 918.245 185.243C916.921 183.29 916.224 181.164 916.224 178.932H924.45C924.554 180.919 925.321 182.488 926.715 183.569C928.11 184.65 929.957 185.208 932.258 185.208C934.558 185.208 936.196 184.79 937.347 183.918C938.497 183.046 939.09 181.965 939.09 180.571V180.536Z" fill="#284D6D"/>
<path d="M1076.63 102.138C1076.63 106.113 1075.72 109.32 1073.91 111.726C1072.1 114.167 1069.62 115.387 1066.52 115.387C1063.42 115.387 1060.87 114.376 1059.03 112.354V124.941H1054.56V88.7837H1058.64L1058.85 91.6777C1060.66 89.4113 1063.21 88.2956 1066.42 88.2956C1069.62 88.2956 1072.03 89.4811 1073.87 91.852C1075.69 94.2229 1076.63 97.5004 1076.63 101.719V102.138ZM1072.17 101.615C1072.17 98.6859 1071.54 96.3498 1070.28 94.6413C1069.03 92.9329 1067.32 92.0961 1065.13 92.0961C1062.41 92.0961 1060.39 93.2815 1059.06 95.6874V108.17C1060.39 110.541 1062.44 111.726 1065.2 111.726C1067.32 111.726 1069.03 110.889 1070.28 109.181C1071.54 107.472 1072.17 104.962 1072.17 101.615Z" fill="#A1A1B2"/>
<path d="M1098.41 114.934C1098.17 114.411 1097.96 113.504 1097.79 112.179C1095.69 114.341 1093.22 115.422 1090.36 115.422C1087.78 115.422 1085.69 114.69 1084.02 113.225C1082.38 111.761 1081.54 109.913 1081.54 107.682C1081.54 104.962 1082.59 102.835 1084.64 101.336C1086.7 99.8365 1089.63 99.0694 1093.36 99.0694H1097.72V97.0123C1097.72 95.4433 1097.26 94.2229 1096.32 93.2815C1095.38 92.3401 1094.02 91.8869 1092.21 91.8869C1090.61 91.8869 1089.28 92.3053 1088.2 93.1072C1087.12 93.9091 1086.6 94.8854 1086.6 96.036H1082.1C1082.1 94.746 1082.55 93.4907 1083.49 92.2704C1084.44 91.0501 1085.69 90.1087 1087.26 89.3765C1088.83 88.6442 1090.57 88.3304 1092.49 88.3304C1095.49 88.3304 1097.86 89.0975 1099.56 90.5968C1101.27 92.0961 1102.14 94.1881 1102.21 96.8031V108.832C1102.21 111.238 1102.53 113.121 1103.12 114.55V114.934H1098.45H1098.41ZM1091.02 111.517C1092.42 111.517 1093.74 111.168 1095 110.436C1096.25 109.704 1097.16 108.762 1097.72 107.612V102.242H1094.23C1088.76 102.242 1086.04 103.846 1086.04 107.054C1086.04 108.449 1086.49 109.53 1087.43 110.331C1088.37 111.133 1089.56 111.517 1091.02 111.517Z" fill="#A1A1B2"/>
<path d="M1121.77 92.8283C1121.11 92.7237 1120.37 92.6539 1119.57 92.6539C1116.64 92.6539 1114.66 93.9091 1113.61 96.3847V114.934H1109.15V88.8186H1113.51L1113.58 91.852C1115.04 89.5159 1117.1 88.3653 1119.82 88.3653C1120.69 88.3653 1121.35 88.4699 1121.8 88.714V92.8631L1121.77 92.8283Z" fill="#A1A1B2"/>
<path d="M1135.4 113.609V109.32C1135.4 108.449 1135.85 107.995 1136.72 107.995H1141.29V62.3197H1136.72C1135.85 62.3197 1135.4 61.8665 1135.4 60.9948V56.6016C1135.4 55.7299 1135.85 55.2766 1136.72 55.2766C1144.22 54.928 1150.45 54.7536 1155.44 54.7536C1170.67 54.7536 1178.27 60.1929 1178.27 71.1062C1178.27 74.9067 1177.29 78.2539 1175.38 81.1827C1173.46 84.0767 1170.88 86.3082 1167.64 87.8074L1177.92 108.03H1183.36C1184.23 108.03 1184.68 108.484 1184.68 109.355V113.644C1184.68 114.515 1184.23 114.969 1183.36 114.969H1171.75C1170.88 114.969 1170.22 114.585 1169.83 113.818L1157.88 90.1784H1156.14C1154.25 90.1784 1152.58 90.0738 1151.12 89.8994V107.995H1156.66C1157.53 107.995 1157.98 108.449 1157.98 109.32V113.609C1157.98 114.481 1157.53 114.934 1156.66 114.934H1136.72C1135.85 114.934 1135.4 114.481 1135.4 113.609ZM1151.12 62.0408V83.205C1151.57 83.2747 1152.27 83.2747 1153.14 83.2747C1157.88 83.2747 1161.57 82.3333 1164.19 80.4505C1166.8 78.5677 1168.13 75.7784 1168.13 72.0127C1168.13 65.3183 1163.49 62.0059 1154.25 62.0059H1151.08L1151.12 62.0408Z" fill="#A1A1B2"/>
<path d="M1209.29 115.98C1202.32 115.98 1197.23 113.958 1193.96 109.878C1190.71 105.799 1189.08 100.429 1189.08 93.6999C1189.08 86.9706 1190.78 81.4268 1194.27 77.0336C1197.72 72.6403 1202.7 70.4437 1209.19 70.4437C1212.39 70.4437 1215.18 71.0365 1217.48 72.2568C1219.78 73.4423 1221.56 75.081 1222.78 77.1382C1225.12 81.113 1226.3 85.7154 1226.3 90.9455C1226.3 93.3861 1226.2 94.7459 1225.95 94.99C1225.71 95.2341 1225.29 95.3387 1224.63 95.3387H1198.8C1199.08 99.5576 1200.12 102.835 1201.9 105.136C1203.68 107.437 1206.78 108.623 1211.17 108.623C1214.38 108.623 1217.69 107.856 1221.11 106.322C1221.91 105.903 1222.5 106.147 1222.85 107.019L1224.52 111.064C1224.8 111.761 1224.52 112.354 1223.72 112.807C1219.85 114.899 1215.01 115.98 1209.22 115.98H1209.29ZM1198.83 88.8186H1217.1C1217.2 81.4965 1214.35 77.8355 1208.49 77.8355C1205.04 77.8355 1202.6 78.9164 1201.17 81.113C1199.74 83.3096 1198.97 85.8549 1198.83 88.8186Z" fill="#A1A1B2"/>
<path d="M1246.41 78.6374V100.778C1246.41 103.532 1246.76 105.52 1247.46 106.74C1248.16 107.961 1249.48 108.588 1251.4 108.588C1253.32 108.588 1255.2 108.17 1257.01 107.368C1257.64 107.124 1258.13 107.368 1258.41 108.065L1259.97 112.11C1260.04 112.284 1260.04 112.528 1260.04 112.842C1260.04 113.156 1259.76 113.504 1259.17 113.853C1256.35 115.248 1253.04 115.945 1249.17 115.945C1243.94 115.945 1240.52 114.585 1238.89 111.9C1237.7 110.157 1237.04 108.449 1236.86 106.81C1236.62 104.578 1236.52 102.242 1236.52 99.7668V78.6026H1231.5C1230.62 78.6026 1230.17 78.1493 1230.17 77.2776V72.7101C1230.17 71.8384 1230.62 71.3851 1231.5 71.3851H1236.52V59.5304C1236.52 58.6587 1236.97 58.2054 1237.84 58.2054H1245.06C1245.93 58.2054 1246.38 58.6587 1246.38 59.5304V71.3851H1255.23C1256.1 71.3851 1256.56 71.8384 1256.56 72.7101V77.2776C1256.56 78.1493 1256.1 78.6026 1255.23 78.6026H1246.38L1246.41 78.6374Z" fill="#A1A1B2"/>
<path d="M1283.75 72.9541C1285.98 71.2805 1288.42 70.4437 1291.03 70.4437C1293.65 70.4437 1295.7 70.6878 1297.1 71.1411C1297.79 71.3851 1298.14 71.9081 1298.14 72.7101V84.5648C1298.14 85.4365 1297.69 85.8898 1296.82 85.8898H1291.1C1290.23 85.8898 1289.81 85.4365 1289.88 84.5648L1290.23 79.4743C1289.95 79.4045 1289.43 79.4045 1288.73 79.4045C1286.05 79.4045 1283.82 80.4854 1282.04 82.682C1280.3 84.8786 1279.39 87.8074 1279.39 91.5033V107.926H1289.04C1289.92 107.926 1290.37 108.379 1290.37 109.251V113.539C1290.37 114.411 1289.92 114.864 1289.04 114.864H1264.89C1264.02 114.864 1263.56 114.411 1263.56 113.539V109.251C1263.56 108.379 1264.02 107.926 1264.89 107.926H1269.56V78.5677H1264.82C1263.95 78.5677 1263.49 78.1144 1263.49 77.2428V72.6752C1263.49 71.8035 1263.95 71.3503 1264.82 71.3503H1276.43C1277.23 71.3503 1277.75 71.8035 1277.92 72.6752L1278.9 78.9164C1279.91 76.5803 1281.51 74.558 1283.75 72.8844V72.9541Z" fill="#A1A1B2"/>
<path d="M1327.32 88.8186V85.7503C1327.32 81.6011 1326.13 78.9861 1323.8 77.9401C1322.68 77.4868 1321.08 77.2428 1318.95 77.2428C1314.98 77.2428 1312.57 79.1256 1311.74 82.8563C1311.56 83.728 1311.11 84.1813 1310.41 84.1813H1304.8C1303.86 84.1813 1303.44 83.728 1303.58 82.8563C1303.82 78.5677 1305.53 75.4297 1308.77 73.4423C1311.98 71.4549 1316.09 70.4437 1321.08 70.4437C1331.57 70.4437 1336.8 75.2554 1336.8 84.8437V107.961H1340.56C1341.43 107.961 1341.89 108.414 1341.89 109.285V113.574C1341.89 114.446 1341.43 114.899 1340.56 114.899H1330.21C1329.44 114.899 1329.02 114.446 1328.89 113.574L1328.26 109.53C1325.09 113.818 1320.52 115.945 1314.56 115.945C1310.79 115.945 1307.69 114.969 1305.25 113.016C1302.78 111.064 1301.56 107.891 1301.56 103.567C1301.56 97.884 1303.93 93.9789 1308.67 91.8869C1312.61 90.0738 1317.28 89.0626 1322.72 88.8883C1323.83 88.8883 1325.36 88.8883 1327.28 88.8186H1327.32ZM1327.49 101.65V94.8854C1321.88 94.8854 1318.43 95.1644 1317.14 95.6874C1315.85 96.2104 1314.7 96.7334 1313.72 97.2564C1311.84 98.2675 1310.9 100.081 1310.9 102.696C1310.9 106.74 1313.2 108.762 1317.84 108.762C1320.87 108.762 1323.24 108.03 1324.95 106.601C1326.65 105.171 1327.49 103.498 1327.49 101.65Z" fill="#A1A1B2"/>
<path d="M1362.63 107.961H1368.17C1369.04 107.961 1369.49 108.414 1369.49 109.285V113.574C1369.49 114.446 1369.04 114.899 1368.17 114.899H1347.25C1346.38 114.899 1345.93 114.446 1345.93 113.574V109.285C1345.93 108.414 1346.38 107.961 1347.25 107.961H1352.8V78.6026H1348.06C1347.18 78.6026 1346.73 78.1493 1346.73 77.2776V72.7101C1346.73 71.8384 1347.18 71.3851 1348.06 71.3851H1361.3C1362.17 71.3851 1362.63 71.8384 1362.63 72.7101V107.926V107.961ZM1352 63.5749C1350.88 62.3895 1350.32 60.9251 1350.32 59.112C1350.32 57.2989 1350.88 55.7996 1352.03 54.5793C1353.18 53.3938 1354.68 52.7662 1356.6 52.7662C1358.51 52.7662 1360.01 53.3589 1361.16 54.5793C1362.31 55.7648 1362.87 57.2989 1362.87 59.112C1362.87 60.9251 1362.28 62.4243 1361.13 63.5749C1359.98 64.7255 1358.41 65.3183 1356.53 65.3183C1354.64 65.3183 1353.11 64.7255 1352 63.5749Z" fill="#A1A1B2"/>
<path d="M1387.83 78.6374V100.778C1387.83 103.532 1388.18 105.52 1388.87 106.74C1389.57 107.961 1390.89 108.588 1392.81 108.588C1394.73 108.588 1396.61 108.17 1398.42 107.368C1399.05 107.124 1399.54 107.368 1399.82 108.065L1401.39 112.11C1401.46 112.284 1401.46 112.528 1401.46 112.842C1401.46 113.156 1401.18 113.504 1400.58 113.853C1397.76 115.248 1394.45 115.945 1390.58 115.945C1385.35 115.945 1381.94 114.585 1380.3 111.9C1379.11 110.157 1378.45 108.449 1378.28 106.81C1378.03 104.578 1377.93 102.242 1377.93 99.7668V78.6026H1372.91C1372.04 78.6026 1371.58 78.1493 1371.58 77.2776V72.7101C1371.58 71.8384 1372.04 71.3851 1372.91 71.3851H1377.93V59.5304C1377.93 58.6587 1378.38 58.2054 1379.25 58.2054H1386.47C1387.34 58.2054 1387.79 58.6587 1387.79 59.5304V71.3851H1396.65C1397.52 71.3851 1397.97 71.8384 1397.97 72.7101V77.2776C1397.97 78.1493 1397.52 78.6026 1396.65 78.6026H1387.79L1387.83 78.6374Z" fill="#A1A1B2"/>
<path d="M1426.06 115.98C1419.09 115.98 1414 113.958 1410.73 109.878C1407.49 105.799 1405.85 100.429 1405.85 93.6999C1405.85 86.9706 1407.56 81.4268 1411.04 77.0336C1414.49 72.6403 1419.48 70.4437 1425.96 70.4437C1429.17 70.4437 1431.96 71.0365 1434.26 72.2568C1436.56 73.4423 1438.33 75.081 1439.55 77.1382C1441.89 81.113 1443.07 85.7154 1443.07 90.9455C1443.07 93.3861 1442.97 94.7459 1442.73 94.99C1442.48 95.2341 1442.06 95.3387 1441.4 95.3387H1415.57C1415.85 99.5576 1416.9 102.835 1418.68 105.136C1420.45 107.437 1423.56 108.623 1427.95 108.623C1431.15 108.623 1434.47 107.856 1437.88 106.322C1438.68 105.903 1439.28 106.147 1439.62 107.019L1441.3 111.064C1441.58 111.761 1441.3 112.354 1440.5 112.807C1436.63 114.899 1431.78 115.98 1426 115.98H1426.06ZM1415.61 88.8186H1433.87C1433.98 81.4965 1431.12 77.8355 1425.26 77.8355C1421.81 77.8355 1419.37 78.9164 1417.94 81.113C1416.51 83.3096 1415.75 85.8549 1415.61 88.8186Z" fill="#A1A1B2"/>
<path d="M1135.95 189.863V185.574C1135.95 184.703 1136.41 184.249 1137.28 184.249H1141.84V138.574H1137.28C1136.41 138.574 1135.95 138.12 1135.95 137.249V132.855C1135.95 131.984 1136.41 131.531 1137.28 131.531C1144.77 131.182 1150.91 131.008 1155.65 131.008C1171.23 131.008 1179 136.726 1179 148.127C1179 154.055 1177.08 158.727 1173.29 162.179C1169.49 165.63 1164.29 167.374 1157.74 167.374C1155.16 167.374 1153.14 167.269 1151.67 167.095V184.214H1158.96C1159.83 184.214 1160.28 184.668 1160.28 185.539V189.828C1160.28 190.7 1159.83 191.153 1158.96 191.153H1137.28C1136.41 191.153 1135.95 190.7 1135.95 189.828V189.863ZM1151.67 138.295V160.331C1152.2 160.4 1153.56 160.435 1155.72 160.435C1164.5 160.435 1168.89 156.53 1168.89 148.755C1168.89 145.931 1168.16 143.734 1166.73 142.13C1165.3 140.526 1163.63 139.48 1161.71 139.027C1159.8 138.574 1157.5 138.33 1154.81 138.33H1151.64L1151.67 138.295Z" fill="#A1A1B2"/>
<path d="M1200.16 126.963V184.249H1205.7C1206.57 184.249 1207.03 184.703 1207.03 185.574V189.863C1207.03 190.735 1206.57 191.188 1205.7 191.188H1184.79C1183.92 191.188 1183.46 190.735 1183.46 189.863V185.574C1183.46 184.703 1183.92 184.249 1184.79 184.249H1190.33V132.855H1185.59C1184.72 132.855 1184.27 132.402 1184.27 131.531V126.963C1184.27 126.091 1184.72 125.638 1185.59 125.638H1198.84C1199.71 125.638 1200.16 126.091 1200.16 126.963Z" fill="#A1A1B2"/>
<path d="M1252.69 184.249H1256.56C1257.43 184.249 1257.88 184.703 1257.88 185.574V189.863C1257.88 190.735 1257.43 191.188 1256.56 191.188H1246.73C1246.03 191.188 1245.58 190.735 1245.4 189.863L1244.6 184.947C1240.84 189.828 1235.92 192.234 1229.86 192.234C1220.38 192.234 1215.64 187.248 1215.64 177.311V154.891H1210.96C1210.09 154.891 1209.64 154.438 1209.64 153.566V148.999C1209.64 148.127 1210.09 147.674 1210.96 147.674H1224.14C1225.01 147.674 1225.47 148.127 1225.47 148.999V174.661C1225.47 178.182 1225.92 180.693 1226.82 182.157C1227.73 183.657 1229.65 184.389 1232.61 184.389C1235.57 184.389 1238.01 183.517 1239.93 181.739C1241.85 179.996 1242.82 178.008 1242.82 175.777V154.856H1237.28C1236.41 154.856 1235.96 154.403 1235.96 153.532V148.964C1235.96 148.092 1236.41 147.639 1237.28 147.639H1251.33C1252.2 147.639 1252.65 148.092 1252.65 148.964V184.18L1252.69 184.249Z" fill="#A1A1B2"/>
<path d="M1269.91 150.603C1272.91 148.023 1276.67 146.732 1281.24 146.732C1285.8 146.732 1289.74 147.255 1293.09 148.301C1293.89 148.546 1294.31 149.069 1294.31 149.871V159.18C1294.31 160.052 1293.85 160.505 1292.98 160.505H1287.89C1286.95 160.505 1286.57 160.052 1286.74 159.18L1287.2 154.682C1285.45 153.741 1283.5 153.287 1281.41 153.287C1276.74 153.287 1274.37 154.926 1274.37 158.204C1274.37 159.912 1275.14 161.237 1276.67 162.248C1278.2 163.259 1280.05 164.061 1282.21 164.654C1284.37 165.282 1286.57 165.979 1288.76 166.746C1290.96 167.513 1292.81 168.873 1294.34 170.791C1295.88 172.708 1296.61 175.114 1296.61 178.043C1296.61 182.506 1295.04 185.958 1291.94 188.468C1288.83 190.979 1284.48 192.199 1278.87 192.199C1274.93 192.199 1270.81 191.606 1266.49 190.456C1265.72 190.212 1265.34 189.654 1265.34 188.782V179.473C1265.34 178.601 1265.79 178.148 1266.67 178.148H1271.75C1272.63 178.148 1273.04 178.601 1272.97 179.473L1272.7 184.04C1274.26 185.226 1276.53 185.783 1279.46 185.783C1284.69 185.783 1287.27 183.935 1287.27 180.24C1287.27 178.357 1286.53 176.892 1285.04 175.811C1283.54 174.731 1281.72 173.894 1279.6 173.301C1277.47 172.708 1275.31 172.046 1273.15 171.314C1270.99 170.581 1269.14 169.291 1267.68 167.443C1266.18 165.595 1265.45 163.19 1265.45 160.191C1265.45 156.321 1266.94 153.113 1269.91 150.533V150.603Z" fill="#A1A1B2"/>
<path d="M1003.73 52.6093H998.26V192.391H1003.73V52.6093Z" fill="#A1A1B2"/>
</g>
<defs>
<clipPath id="clip0_159_2346">
<rect width="1443.08" height="245" fill="white"/>
</clipPath>
</defs>
</svg>
